<svg width="227" height="55" fill="none" xmlns="http://www.w3.org/2000/svg"><path d="M19.212 42.648l1.792 3.546H17.42l1.792-3.547z" fill="#FFE70B"/><circle cx="18.917" cy="24.321" r="18.917" fill="#FFE70B"/><path d="M14.28 5.982a18.917 18.917 0 111.615 37.014l3.317-.644c2.66-.887 2.365-.591 4.73-1.774 2.273-1.137 3.905-2.61 5.695-4.203a16.132 16.132 0 00-1.09-24.993c-1.921-1.43-2.241-1.839-5.122-3.317-2.44-1.251-6.822-2.67-9.144-2.083z" fill="#FFD80B" fill-opacity=".9"/><path d="M17.017 29.735c.28.08.64.14 1.08.18.44.02.86.03 1.26.03.8 0 1.46-.16 1.98-.48.54-.34.81-.86.81-1.56 0-.66-.22-1.13-.66-1.41-.44-.28-1.11-.42-2.01-.42h-2.46v3.66zm0-7.32h2.19c.86 0 1.48-.16 1.86-.48.4-.32.6-.79.6-1.41 0-.54-.23-.97-.69-1.29-.44-.32-1.11-.48-2.01-.48-.3 0-.65.01-1.05.03-.38.02-.68.05-.9.09v3.54zm1.95 11.55c-.34 0-.74-.01-1.2-.03a18.012 18.012 0 01-2.88-.36c-.48-.08-.92-.2-1.32-.36-1.1-.42-1.65-1.15-1.65-2.19v-14.01c0-.42.11-.74.33-.96.24-.24.56-.43.96-.57.68-.24 1.53-.41 2.55-.51 1.02-.12 2.07-.18 3.15-.18 2.56 0 4.53.43 5.91 1.29 1.38.86 2.07 2.19 2.07 3.99 0 .9-.26 1.68-.78 2.34-.52.64-1.22 1.11-2.1 1.41 1 .28 1.83.79 2.49 1.53.68.74 1.02 1.67 1.02 2.79 0 1.98-.74 3.45-2.22 4.41-1.46.94-3.57 1.41-6.33 1.41z" fill="#000"/><path d="M57.046 37.243l1.791 3.546h-3.583l1.792-3.546z" fill="#FFE70B"/><circle cx="56.75" cy="18.917" r="18.917" fill="#FFE70B"/><path d="M52.114.577a18.917 18.917 0 111.614 37.014l3.318-.644c2.66-.887 2.364-.591 4.729-1.773 2.274-1.137 3.906-2.611 5.696-4.204a16.131 16.131 0 00-1.09-24.993c-1.922-1.43-2.242-1.838-5.123-3.316C58.82 1.409 54.438-.01 52.114.577z" fill="#FFD80B" fill-opacity=".9"/><path d="M59.38 28.716c-.22.06-.57.12-1.05.18-.46.06-.92.09-1.38.09-.46 0-.87-.04-1.23-.12-.34-.06-.63-.18-.87-.36a1.62 1.62 0 01-.54-.75c-.12-.32-.18-.74-.18-1.26v-15.84c.22-.04.57-.09 1.05-.15.48-.08.94-.12 1.38-.12.46 0 .86.04 1.2.12.36.06.66.18.9.36s.42.43.54.75c.12.32.18.74.18 1.26v15.84z" fill="#000"/><path d="M94.879 48.728l1.792 3.547h-3.584l1.792-3.547z" fill="#FFE70B"/><circle cx="94.583" cy="30.402" r="18.917" fill="#FFE70B"/><path d="M89.948 12.062a18.916 18.916 0 111.613 37.014l3.318-.644c2.66-.887 2.364-.591 4.729-1.773 2.274-1.137 3.906-2.611 5.696-4.204a16.128 16.128 0 003.533-19.606 16.142 16.142 0 00-4.622-5.387c-1.922-1.43-2.242-1.838-5.123-3.316-2.44-1.252-6.822-2.67-9.144-2.084z" fill="#FFD80B" fill-opacity=".9"/><path d="M93.77 33.011c-.88-.3-1.68-.6-2.4-.9-.72-.32-1.34-.7-1.86-1.14a4.89 4.89 0 01-1.23-1.56c-.28-.62-.42-1.37-.42-2.25 0-1.7.65-3.06 1.95-4.08 1.32-1.02 3.16-1.53 5.52-1.53.86 0 1.66.06 2.4.18s1.37.31 1.89.57c.539.24.959.56 1.259.96.3.38.45.83.45 1.35 0 .52-.12.97-.36 1.35-.24.36-.53.67-.87.93-.44-.28-1.03-.52-1.77-.72a8.5 8.5 0 00-2.43-.33c-.9 0-1.56.13-1.98.39-.42.24-.63.55-.63.93 0 .3.13.55.39.75.26.18.65.35 1.17.51l1.59.51c1.88.6 3.32 1.37 4.32 2.31 1.02.92 1.53 2.18 1.53 3.78 0 1.7-.67 3.08-2.01 4.14-1.34 1.04-3.31 1.56-5.91 1.56-.92 0-1.78-.08-2.58-.24-.78-.14-1.47-.35-2.07-.63-.58-.3-1.04-.66-1.38-1.08-.32-.44-.48-.94-.48-1.5 0-.58.17-1.07.51-1.47.34-.42.71-.74 1.11-.96.56.44 1.24.82 2.04 1.14.82.32 1.71.48 2.67.48.98 0 1.67-.15 2.07-.45.4-.3.6-.65.6-1.05s-.16-.7-.48-.9c-.32-.22-.77-.43-1.35-.63l-1.26-.42z" fill="#000"/><path d="M132.712 37.918l1.792 3.547h-3.584l1.792-3.547z" fill="#FFE70B"/><circle cx="132.417" cy="19.592" r="18.917" fill="#FFE70B"/><path d="M127.781 1.253a18.917 18.917 0 111.614 37.013l3.317-.643c2.66-.887 2.365-.591 4.729-1.774 2.274-1.137 3.906-2.611 5.696-4.203a16.139 16.139 0 003.533-19.606 16.12 16.12 0 00-4.622-5.388c-1.922-1.43-2.242-1.838-5.123-3.316-2.439-1.251-6.821-2.67-9.144-2.083z" fill="#FFD80B" fill-opacity=".9"/><path d="M140.612 29.311c-.22.06-.57.12-1.05.18-.46.06-.92.09-1.38.09-.46 0-.87-.04-1.23-.12-.34-.06-.63-.18-.87-.36a1.62 1.62 0 01-.54-.75c-.12-.32-.18-.74-.18-1.26v-4.68h-5.76v6.9c-.22.06-.57.12-1.05.18-.46.06-.92.09-1.38.09-.46 0-.87-.04-1.23-.12-.34-.06-.63-.18-.87-.36a1.62 1.62 0 01-.54-.75c-.12-.32-.18-.74-.18-1.26v-15.84c.22-.04.57-.09 1.05-.15.48-.08.94-.12 1.38-.12.46 0 .86.04 1.2.12.36.06.66.18.9.36s.42.43.54.75c.12.32.18.74.18 1.26v4.8h5.76v-7.02c.22-.04.57-.09 1.05-.15.48-.08.94-.12 1.38-.12.46 0 .86.04 1.2.12.36.06.66.18.9.36s.42.43.54.75c.12.32.18.74.18 1.26v15.84z" fill="#000"/><path d="M170.546 49.403l1.791 3.547h-3.583l1.792-3.547z" fill="#FFE70B"/><circle cx="170.25" cy="31.077" r="18.917" fill="#FFE70B"/><path d="M165.614 12.738a18.917 18.917 0 111.614 37.014l3.318-.644c2.66-.887 2.364-.591 4.729-1.773 2.274-1.138 3.906-2.612 5.696-4.204a16.129 16.129 0 00-1.09-24.993c-1.922-1.43-2.242-1.839-5.123-3.317-2.439-1.25-6.821-2.67-9.144-2.083z" fill="#FFD80B" fill-opacity=".9"/><path d="M168.302 34.166v6.63c-.22.06-.57.12-1.05.18-.48.06-.95.09-1.41.09-.46 0-.87-.04-1.23-.12-.34-.06-.63-.18-.87-.36a1.62 1.62 0 01-.54-.75c-.12-.32-.18-.74-.18-1.26v-15.84c.22-.04.57-.09 1.05-.15.48-.08.94-.12 1.38-.12.46 0 .86.04 1.2.12.36.06.66.18.9.36s.42.43.54.75c.12.32.18.74.18 1.26v4.77l6.24-7.17c1.36 0 2.33.26 2.91.78.6.5.9 1.1.9 1.8 0 .52-.13 1.01-.39 1.47-.26.46-.68.98-1.26 1.56l-3.75 3.75c.5.56 1.02 1.14 1.56 1.74.56.6 1.1 1.19 1.62 1.77.54.56 1.05 1.1 1.53 1.62.5.52.93.97 1.29 1.35 0 .44-.08.83-.24 1.17-.16.34-.38.63-.66.87-.26.24-.56.42-.9.54-.34.12-.7.18-1.08.18-.82 0-1.49-.2-2.01-.6-.52-.42-1.02-.91-1.5-1.47l-4.23-4.92z" fill="#000"/><path d="M208.379 41.296l1.792 3.547h-3.584l1.792-3.547z" fill="#FFE70B"/><circle cx="208.083" cy="22.97" r="18.917" fill="#FFE70B"/><path d="M203.448 4.631a18.917 18.917 0 111.613 37.014l3.318-.644c2.66-.887 2.364-.591 4.729-1.774 2.274-1.137 3.906-2.61 5.696-4.203a16.128 16.128 0 003.533-19.606 16.134 16.134 0 00-4.623-5.388c-1.921-1.43-2.241-1.838-5.122-3.316-2.44-1.251-6.822-2.67-9.144-2.083z" fill="#FFD80B" fill-opacity=".9"/><path d="M204.692 14.494c.34-.2.85-.39 1.53-.57.7-.18 1.4-.27 2.1-.27 1 0 1.88.15 2.64.45.78.28 1.28.73 1.5 1.35.36 1.04.75 2.25 1.17 3.63.42 1.38.84 2.81 1.26 4.29.42 1.46.83 2.91 1.23 4.35.4 1.42.75 2.68 1.05 3.78-.24.28-.6.5-1.08.66-.48.18-1.05.27-1.71.27-.48 0-.89-.04-1.23-.12-.32-.08-.59-.2-.81-.36-.2-.16-.37-.37-.51-.63-.12-.26-.23-.56-.33-.9l-.54-2.07h-5.43c-.16.6-.32 1.22-.48 1.86-.16.64-.32 1.26-.48 1.86-.28.1-.58.18-.9.24-.3.08-.67.12-1.11.12-1.02 0-1.78-.17-2.28-.51-.48-.36-.72-.85-.72-1.47 0-.28.04-.56.12-.84.08-.28.17-.61.27-.99.14-.54.33-1.21.57-2.01l.84-2.58c.3-.94.62-1.9.96-2.88l.96-2.76c.3-.88.57-1.66.81-2.34.26-.68.46-1.2.6-1.56zm3.6 3.87c-.28.84-.6 1.78-.96 2.82a51.27 51.27 0 00-.93 3.12h3.72c-.28-1.08-.57-2.13-.87-3.15-.28-1.04-.54-1.97-.78-2.79h-.18z" fill="#000"/></svg>