<svg width="18" height="18" viewBox="0 0 18 18" fill="none" xmlns="http://www.w3.org/2000/svg">
<g clip-path="url(#clip0)">
<path d="M9.00013 6.83724C7.80914 6.83724 6.8372 7.80917 6.8372 9.00016C6.8372 10.1911 7.80914 11.1631 9.00013 11.1631C10.1911 11.1631 11.163 10.1911 11.163 9.00016C11.163 7.80917 10.1911 6.83724 9.00013 6.83724ZM15.4873 9.00016C15.4873 8.10449 15.4954 7.21693 15.4451 6.32288C15.3948 5.28441 15.1579 4.36278 14.3985 3.6034C13.6375 2.84241 12.7175 2.60713 11.679 2.55683C10.7834 2.50653 9.8958 2.51464 9.00175 2.51464C8.10607 2.51464 7.21851 2.50653 6.32446 2.55683C5.286 2.60713 4.36437 2.84403 3.60499 3.6034C2.84399 4.3644 2.60872 5.28441 2.55842 6.32288C2.50812 7.21855 2.51623 8.10611 2.51623 9.00016C2.51623 9.89421 2.50812 10.7834 2.55842 11.6774C2.60872 12.7159 2.84562 13.6375 3.60499 14.3969C4.36599 15.1579 5.286 15.3932 6.32446 15.4435C7.22014 15.4938 8.1077 15.4857 9.00175 15.4857C9.89742 15.4857 10.785 15.4938 11.679 15.4435C12.7175 15.3932 13.6391 15.1563 14.3985 14.3969C15.1595 13.6359 15.3948 12.7159 15.4451 11.6774C15.497 10.7834 15.4873 9.89583 15.4873 9.00016ZM9.00013 12.3281C7.15848 12.3281 5.67218 10.8418 5.67218 9.00016C5.67218 7.15851 7.15848 5.67221 9.00013 5.67221C10.8418 5.67221 12.3281 7.15851 12.3281 9.00016C12.3281 10.8418 10.8418 12.3281 9.00013 12.3281ZM12.4644 6.31314C12.0344 6.31314 11.6871 5.9659 11.6871 5.53592C11.6871 5.10593 12.0344 4.75869 12.4644 4.75869C12.8944 4.75869 13.2416 5.10593 13.2416 5.53592C13.2417 5.63802 13.2217 5.73914 13.1827 5.8335C13.1437 5.92785 13.0864 6.01358 13.0142 6.08578C12.942 6.15798 12.8563 6.21522 12.762 6.25424C12.6676 6.29325 12.5665 6.31327 12.4644 6.31314Z" fill="black"/>
</g>
<defs>
<clipPath id="clip0">
<rect x="0.692383" y="0.692383" width="16.6154" height="16.6154" fill="white"/>
</clipPath>
</defs>
</svg>
