<svg width="18" height="18" viewBox="0 0 18 18" fill="none" xmlns="http://www.w3.org/2000/svg">
<path d="M15.5891 5.43813C15.686 5.1162 15.5891 4.88013 15.1308 4.88013H13.6126C13.2263 4.88013 13.0497 5.08436 12.9528 5.30867C12.9528 5.30867 12.1809 7.19105 11.087 8.41159C10.734 8.76674 10.5727 8.8789 10.3802 8.8789C10.284 8.8789 10.1441 8.76674 10.1441 8.44482V5.43813C10.1441 5.05182 10.0327 4.88013 9.71073 4.88013H7.32504C7.08412 4.88013 6.93873 5.05874 6.93873 5.22905C6.93873 5.59459 7.48565 5.67905 7.54173 6.7092V8.94397C7.54173 9.43343 7.45381 9.52274 7.25996 9.52274C6.74558 9.52274 5.49389 7.63343 4.75104 5.47067C4.60635 5.05043 4.46027 4.88082 4.07258 4.88082H2.55504C2.12096 4.88082 2.03442 5.08505 2.03442 5.30936C2.03442 5.71228 2.54881 7.70613 4.4305 10.3431C5.68496 12.1438 7.45104 13.12 9.05996 13.12C10.0243 13.12 10.1434 12.9033 10.1434 12.5294V11.1684C10.1434 10.735 10.2355 10.6477 10.5408 10.6477C10.7651 10.6477 11.1514 10.7613 12.0521 11.6287C13.0809 12.6575 13.2512 13.1193 13.8293 13.1193H15.3468C15.7802 13.1193 15.9969 12.9026 15.8723 12.4747C15.7359 12.049 15.2443 11.4294 14.5922 10.6962C14.2377 10.278 13.7081 9.82805 13.5468 9.60305C13.3218 9.31297 13.3869 9.1849 13.5468 8.92736C13.5475 8.92805 15.3967 6.32359 15.5891 5.43813Z" fill="black"/>
</svg>
