<?xml version="1.0" standalone="no"?>
<!DOCTYPE svg PUBLIC "-//W3C//DTD SVG 20010904//EN"
 "http://www.w3.org/TR/2001/REC-SVG-20010904/DTD/svg10.dtd">
<svg version="1.0" xmlns="http://www.w3.org/2000/svg"
 width="1024.000000pt" height="1024.000000pt" viewBox="0 0 1024.000000 1024.000000"
 preserveAspectRatio="xMidYMid meet">
<metadata>
Created by potrace 1.11, written by Peter Selinger 2001-2013
</metadata>
<g transform="translate(0.000000,1024.000000) scale(0.100000,-0.100000)"
fill="#000000" stroke="none">
<path d="M4655 10234 c-74 -9 -283 -28 -310 -29 -16 0 -34 -3 -40 -7 -5 -3
-37 -8 -70 -12 -33 -3 -71 -8 -85 -11 -14 -3 -41 -8 -60 -11 -19 -3 -43 -7
-52 -10 -10 -3 -28 -7 -40 -10 -13 -2 -34 -6 -48 -9 -14 -4 -34 -8 -46 -10
-22 -5 -155 -40 -214 -56 -19 -5 -42 -12 -50 -14 -8 -2 -16 -4 -17 -5 -2 -2
-6 -3 -10 -4 -64 -15 -371 -124 -458 -162 -22 -10 -43 -17 -47 -16 -5 1 -8 -3
-8 -8 0 -6 -7 -10 -15 -10 -18 0 -109 -42 -113 -52 -2 -5 -9 -8 -15 -8 -12 0
-198 -90 -207 -101 -3 -3 -20 -11 -37 -18 -18 -8 -33 -17 -33 -22 0 -5 -9 -9
-20 -9 -11 0 -20 -4 -20 -9 0 -5 -8 -11 -17 -14 -22 -7 -72 -37 -91 -54 -7 -7
-18 -13 -24 -13 -5 0 -22 -9 -36 -21 -15 -11 -56 -39 -92 -62 -36 -22 -71 -47
-78 -54 -7 -7 -17 -13 -22 -13 -5 0 -15 -6 -22 -12 -7 -7 -56 -45 -108 -84
-121 -92 -136 -103 -171 -136 -16 -16 -32 -28 -34 -28 -3 0 -13 -8 -23 -17
-10 -10 -63 -58 -116 -108 -176 -162 -328 -324 -459 -489 -27 -34 -56 -70 -65
-81 -10 -11 -41 -54 -71 -95 -30 -41 -59 -78 -65 -82 -6 -4 -7 -8 -2 -8 5 0 0
-10 -11 -22 -24 -28 -109 -159 -125 -193 -6 -14 -15 -25 -20 -25 -4 0 -8 -4
-8 -9 0 -5 -20 -44 -45 -85 -81 -138 -219 -417 -240 -486 -4 -14 -11 -27 -15
-30 -12 -9 -148 -388 -166 -462 -1 -5 -2 -9 -4 -10 -1 -2 -3 -10 -5 -18 -6
-23 -25 -93 -30 -110 -6 -22 -46 -183 -50 -200 -1 -8 -6 -35 -11 -60 -9 -50
-11 -59 -13 -62 -2 -2 -4 -15 -6 -29 -6 -49 -15 -104 -20 -129 -3 -14 -7 -41
-10 -60 -2 -19 -7 -57 -10 -85 -24 -185 -29 -293 -29 -560 0 -213 8 -450 15
-450 1 0 2 -13 4 -30 2 -32 12 -101 20 -150 3 -16 8 -50 11 -75 9 -71 12 -95
14 -95 1 0 3 -11 5 -25 6 -42 31 -167 45 -220 5 -19 16 -62 24 -95 8 -33 19
-75 25 -92 5 -18 7 -33 4 -33 -3 0 -1 -6 5 -12 5 -7 13 -29 18 -48 9 -42 9
-41 16 -60 4 -8 20 -55 36 -105 17 -49 49 -137 72 -195 54 -134 61 -154 62
-160 0 -3 6 -16 13 -30 8 -14 45 -88 83 -165 38 -77 79 -158 92 -180 12 -22
36 -65 53 -95 16 -30 32 -57 36 -60 3 -3 15 -22 26 -42 11 -21 23 -38 27 -38
5 0 7 -3 6 -7 -4 -11 153 -243 163 -243 5 0 9 -4 9 -10 0 -14 77 -115 190
-250 30 -36 61 -73 70 -83 8 -11 40 -45 70 -77 30 -32 67 -70 81 -86 37 -42
204 -200 279 -264 35 -30 74 -64 86 -75 12 -11 35 -29 50 -40 15 -11 38 -29
50 -40 70 -61 394 -285 413 -285 6 0 11 -4 11 -9 0 -5 8 -12 18 -15 22 -9 78
-40 94 -54 18 -14 363 -196 363 -191 0 1 25 -9 55 -23 52 -23 192 -82 235 -98
11 -5 45 -18 76 -30 31 -12 63 -23 70 -24 13 -3 30 -9 74 -26 59 -22 362 -106
420 -115 6 -1 12 -3 15 -4 7 -3 22 -7 95 -20 33 -6 71 -13 85 -16 14 -3 39 -7
55 -10 17 -3 41 -7 55 -10 34 -6 75 -12 140 -20 30 -4 67 -9 82 -11 32 -5 158
-14 287 -19 52 -3 96 -7 99 -10 3 -3 11 0 19 6 7 6 13 7 13 2 0 -5 16 -7 35
-5 38 5 43 -4 20 -34 -8 -10 -15 -26 -15 -36 0 -9 -3 -18 -7 -20 -10 -4 -114
-210 -113 -222 1 -5 -3 -12 -10 -16 -6 -4 -12 -14 -14 -22 -1 -9 -7 -22 -12
-29 -6 -8 -47 -87 -92 -177 l-82 -162 436 0 c246 0 434 4 432 9 -12 32 -255
507 -261 512 -5 3 -8 9 -7 13 0 3 -20 47 -45 96 -25 50 -45 91 -45 93 0 1 35
2 78 3 42 0 118 4 167 9 50 4 96 8 103 8 6 0 12 4 12 8 0 4 8 5 19 2 10 -3 63
2 117 11 55 8 116 18 138 22 48 7 67 11 136 25 30 7 64 13 75 15 11 1 20 3 20
4 0 2 36 10 58 12 9 1 17 6 17 11 0 4 3 6 8 4 9 -6 109 19 252 63 58 18 111
33 118 33 6 0 12 4 12 7 0 4 12 10 28 13 15 3 41 11 57 18 17 7 37 13 46 15 8
2 29 10 45 19 16 8 33 15 37 15 9 0 204 83 249 107 15 7 29 13 30 12 6 -3 233
116 236 124 2 4 8 7 12 7 13 0 224 122 232 134 5 7 8 7 8 1 0 -6 3 -6 8 0 4 6
53 41 108 78 56 36 109 73 117 82 9 8 18 15 22 15 4 0 12 6 19 13 8 6 24 19
36 27 182 122 553 469 735 686 22 26 50 59 63 71 12 13 22 28 22 33 0 4 3 10
8 12 7 3 76 89 102 128 8 12 20 28 25 34 14 15 109 148 115 161 7 15 78 124
111 171 15 23 26 44 23 46 -2 3 2 11 11 18 8 7 15 17 15 23 0 6 6 18 14 26 21
24 165 311 220 436 26 61 52 119 57 130 6 12 11 27 13 35 2 8 6 22 9 30 26 60
114 318 122 355 1 6 7 28 13 50 6 22 12 43 12 47 0 4 7 26 15 48 8 22 12 40
10 40 -2 0 2 21 10 48 11 38 34 144 59 277 19 97 47 331 49 412 1 29 4 53 7
53 9 0 13 442 5 565 -9 148 -14 212 -20 255 -9 65 -15 120 -19 157 -2 18 -7
50 -11 70 -5 21 -9 47 -10 58 -3 24 -13 76 -25 130 -5 22 -11 54 -14 70 -3 17
-19 82 -36 145 -16 63 -32 126 -36 140 -8 39 -33 117 -66 210 -17 47 -31 93
-31 103 -1 9 -5 17 -9 17 -4 0 -8 4 -8 9 0 5 -5 22 -12 38 -6 15 -13 37 -15
47 -2 11 -7 24 -12 30 -4 6 -15 29 -24 51 -8 22 -23 58 -33 80 -10 22 -18 42
-19 45 -5 18 -67 146 -73 150 -4 3 -8 12 -10 20 -4 20 -167 314 -203 367 -16
23 -29 44 -29 48 0 8 -43 69 -52 73 -5 2 -8 8 -8 13 0 6 -5 15 -10 22 -6 7
-33 44 -60 82 -27 39 -53 75 -57 80 -4 6 -28 37 -53 70 -25 33 -55 71 -66 85
-117 137 -175 203 -218 249 -158 166 -310 307 -456 425 -25 20 -52 43 -61 51
-9 8 -21 15 -27 15 -7 0 -12 4 -12 9 0 4 -28 28 -62 52 -35 23 -65 46 -68 49
-7 10 -288 193 -330 216 -19 10 -38 24 -42 29 -4 6 -8 7 -8 3 0 -4 -15 3 -34
15 -38 26 -393 204 -416 209 -8 2 -17 6 -20 9 -5 6 -293 118 -320 124 -8 2
-40 13 -70 23 -108 38 -346 105 -419 117 -19 3 -41 9 -50 14 -9 4 -31 7 -48 6
-18 0 -33 3 -33 8 0 5 -6 7 -14 4 -8 -3 -17 -3 -20 1 -9 8 -13 9 -168 28 -32
4 -58 10 -58 13 0 3 -15 6 -33 7 -49 1 -198 15 -221 21 -24 5 -617 12 -661 7z"/>
</g>
</svg>
